<svg width="79" height="52" viewBox="0 0 79 52" fill="none" xmlns="http://www.w3.org/2000/svg">
<g filter="url(#filter0_d_1_98)">
<path d="M41.3512 40.2393L44.2651 43.9082C34.2077 38.9929 28.9119 29.0605 24.8537 17.4258L27.8602 15.3622L28.7607 14.7441L27.7044 14.4664L25.0107 13.7583L25.9947 11.6101L26.4156 10.6913L25.4299 10.9142L24.7613 11.0653C21.7721 11.7412 19.0359 12.3598 16.2982 12.9827C15.0401 13.269 13.777 13.5579 12.5125 13.8475C14.1992 13.1421 15.8948 12.3588 17.5785 11.581L17.617 11.5631C21.4702 9.78306 25.2614 8.03455 28.8494 7.21329L28.8501 7.21315C29.4672 7.07104 30.0885 6.87627 30.7513 6.66849C30.8412 6.64032 30.9318 6.6119 31.0233 6.58334C29.9279 17.9379 33.2363 27.7674 39.0902 36.9134L39.5105 37.57L39.932 36.9143C45.7741 27.8261 49.106 18.0127 47.9952 6.65771C50.9254 7.3321 53.8387 8.00435 56.7443 8.67484C59.5041 9.31166 62.2569 9.94689 65.0109 10.5809C65.2203 10.6291 65.545 10.7998 65.9849 11.1125C66.4108 11.4151 66.894 11.8134 67.4127 12.2595C67.6843 12.4931 67.9661 12.7405 68.2527 12.992C68.8953 13.556 69.5616 14.1408 70.1894 14.6381C66.6121 13.8375 63.0386 13.017 59.4635 12.1962C58.108 11.8849 56.7521 11.5736 55.3958 11.2633C55.0435 11.1825 54.6856 11.1112 54.2566 11.0258C54.045 10.9837 53.8161 10.9381 53.5621 10.8862L52.5941 10.6885L53.008 11.5856L54.0099 13.7567L51.3433 14.4523L50.2969 14.7252L51.1826 15.3456L54.1543 17.4273C51.2898 25.8819 47.599 33.5997 41.3961 39.5681L41.0684 39.8833L41.3512 40.2393Z" fill="url(#paint0_linear_1_98)" stroke="black"/>
<path d="M39.7473 19.6869C36.333 14.3568 33.8791 8.74034 33.0001 1.99994C37.5125 4.11591 41.9111 4.68381 46.4809 2.07031C45.619 8.78791 43.1522 14.3796 39.7473 19.6869Z" fill="#CB5454"/>
</g>
<defs>
<filter id="filter0_d_1_98" x="0.903625" y="-6.10352e-05" width="77.2341" height="51.1961" filterUnits="userSpaceOnUse" color-interpolation-filters="sRGB">
<feFlood flood-opacity="0" result="BackgroundImageFix"/>
<feColorMatrix in="SourceAlpha" type="matrix" values="0 0 0 0 0 0 0 0 0 0 0 0 0 0 0 0 0 0 127 0" result="hardAlpha"/>
<feOffset dy="2"/>
<feGaussianBlur stdDeviation="2"/>
<feComposite in2="hardAlpha" operator="out"/>
<feColorMatrix type="matrix" values="0 0 0 0 0.0848681 0 0 0 0 0.219254 0 0 0 0 0.420833 0 0 0 1 0"/>
<feBlend mode="normal" in2="BackgroundImageFix" result="effect1_dropShadow_1_98"/>
<feBlend mode="normal" in="SourceGraphic" in2="effect1_dropShadow_1_98" result="shape"/>
</filter>
<linearGradient id="paint0_linear_1_98" x1="39.4998" y1="5.88446" x2="39.5273" y2="45.196" gradientUnits="userSpaceOnUse">
<stop offset="0.461458" stop-color="#CB5454"/>
<stop offset="1" stop-color="#D39E72"/>
</linearGradient>
</defs>
</svg>
